<svg width="390" height="607" viewBox="0 0 390 607" fill="none" xmlns="http://www.w3.org/2000/svg">
<path d="M5.304 603.182C2.6 603.182 0.52 601.076 0.52 598.346C0.52 595.629 2.613 593.523 5.304 593.523C8.008 593.523 10.101 595.629 10.101 598.346C10.101 601.076 8.021 603.182 5.304 603.182ZM5.304 602.545C7.657 602.545 9.412 600.738 9.412 598.346C9.412 595.954 7.644 594.16 5.304 594.16C2.977 594.16 1.209 595.967 1.209 598.346C1.209 600.738 2.964 602.545 5.304 602.545ZM2.925 598.372C2.925 596.812 3.939 595.733 5.408 595.733C6.539 595.733 7.384 596.396 7.592 597.423H6.799C6.617 596.773 6.136 596.435 5.421 596.435C4.394 596.435 3.692 597.228 3.692 598.359C3.692 599.503 4.368 600.27 5.356 600.27C6.097 600.27 6.617 599.919 6.825 599.295H7.605C7.371 600.309 6.474 600.972 5.356 600.972C3.926 600.972 2.925 599.906 2.925 598.372ZM20.9524 603H14.8164V602.259L17.7934 599.659C19.5094 598.164 19.9514 597.514 19.9514 596.409C19.9514 595.148 19.1974 594.381 17.9624 594.381C16.6754 594.381 15.8304 595.317 15.7914 596.76H14.8554C14.9074 594.81 16.1424 593.523 17.9754 593.523C19.7304 593.523 20.9004 594.654 20.9004 596.357C20.9004 597.709 20.2894 598.606 18.4304 600.231L16.2594 602.129H20.9524V603ZM22.2463 598.346C22.2463 595.46 23.6633 593.51 25.9773 593.51C28.2783 593.51 29.6953 595.46 29.6953 598.346C29.6953 601.245 28.3043 603.169 25.9773 603.169C23.6373 603.169 22.2463 601.245 22.2463 598.346ZM23.1693 598.346C23.1693 600.764 24.1963 602.324 25.9773 602.324C27.7583 602.324 28.7853 600.764 28.7853 598.346C28.7853 595.915 27.7583 594.368 25.9773 594.368C24.1963 594.368 23.1693 595.915 23.1693 598.346ZM37.1263 603H30.9903V602.259L33.9673 599.659C35.6833 598.164 36.1253 597.514 36.1253 596.409C36.1253 595.148 35.3713 594.381 34.1363 594.381C32.8493 594.381 32.0043 595.317 31.9653 596.76H31.0293C31.0813 594.81 32.3163 593.523 34.1493 593.523C35.9043 593.523 37.0743 594.654 37.0743 596.357C37.0743 597.709 36.4633 598.606 34.6043 600.231L32.4333 602.129H37.1263V603ZM39.4731 596.825L41.8001 593.692H42.8921L40.4481 596.929C40.8901 596.708 41.2931 596.617 41.7221 596.617C43.6591 596.617 44.9461 598.034 44.9461 599.854C44.9461 601.765 43.5031 603.156 41.6441 603.156C39.7721 603.156 38.3031 601.713 38.3031 599.854C38.3031 598.775 38.6021 598.021 39.4731 596.825ZM39.2521 599.867C39.2521 601.284 40.2271 602.311 41.6441 602.311C43.0221 602.311 44.0101 601.284 44.0101 599.867C44.0101 598.45 43.0221 597.436 41.6441 597.436C40.2271 597.436 39.2521 598.45 39.2521 599.867ZM50.7946 604.105V592.691H51.5356V604.105H50.7946ZM60.7511 603H57.9171V593.692H60.7251C63.5331 593.692 65.4051 595.564 65.4051 598.346C65.4051 601.128 63.5461 603 60.7511 603ZM60.6861 594.55H58.8531V602.142H60.7121C62.9871 602.142 64.4431 600.66 64.4431 598.346C64.4431 596.019 62.9871 594.55 60.6861 594.55ZM67.3428 594.979C66.9788 594.979 66.6798 594.68 66.6798 594.316C66.6798 593.952 66.9788 593.64 67.3428 593.64C67.7068 593.64 68.0188 593.952 68.0188 594.316C68.0188 594.68 67.7068 594.979 67.3428 594.979ZM66.9008 603V596.708H67.7978V603H66.9008ZM71.4234 603L68.8494 596.708H69.8114L71.4364 600.764C71.6054 601.219 71.7744 601.648 71.8914 602.064C72.0084 601.635 72.1774 601.219 72.3594 600.764L74.0104 596.708H74.9334L72.3204 603H71.4234ZM75.3537 605.743V605.002H76.0427C76.5887 605.002 77.1347 604.963 77.4467 604.118L77.7197 603.377L75.1717 596.708H76.1207L78.1487 602.194L80.1377 596.708H81.0607L78.1747 604.443C77.8107 605.431 77.1997 605.834 76.3027 605.834C75.9257 605.834 75.6397 605.808 75.3537 605.743ZM83.6375 603.156C82.2985 603.156 81.5055 602.402 81.5055 601.297C81.5055 600.14 82.3895 599.412 83.8585 599.295L85.9385 599.126V598.918C85.9385 597.683 85.1975 597.293 84.2745 597.293C83.1825 597.293 82.5325 597.787 82.5325 598.632H81.7135C81.7135 597.358 82.7535 596.539 84.3005 596.539C85.7565 596.539 86.8225 597.267 86.8225 598.931V603H86.0685L85.9515 601.895C85.5615 602.688 84.7035 603.156 83.6375 603.156ZM83.8455 602.428C85.1715 602.428 85.9385 601.505 85.9385 600.14V599.802L84.0795 599.945C82.8965 600.049 82.4155 600.569 82.4155 601.271C82.4155 602.038 82.9875 602.428 83.8455 602.428ZM89.5195 603H88.6225V596.708H89.4025L89.5325 597.8C89.9485 596.994 90.7805 596.539 91.6905 596.539C93.4195 596.539 94.1345 597.566 94.1345 599.152V603H93.2375V599.347C93.2375 597.878 92.5745 597.358 91.5345 597.358C90.2475 597.358 89.5195 598.294 89.5195 599.711V603ZM95.3132 601.232H96.1712C96.1712 601.96 96.7172 602.415 97.6012 602.415C98.5762 602.415 99.1482 601.999 99.1482 601.323C99.1482 600.803 98.8882 600.504 98.1472 600.322L97.0682 600.049C95.9762 599.776 95.4432 599.204 95.4432 598.346C95.4432 597.241 96.3662 596.539 97.7182 596.539C99.0442 596.539 99.9022 597.267 99.9412 598.437H99.0702C99.0442 597.709 98.5372 597.28 97.6922 597.28C96.8082 597.28 96.3142 597.657 96.3142 598.333C96.3142 598.814 96.6522 599.152 97.3412 599.321L98.4202 599.594C99.5122 599.867 100.006 600.374 100.006 601.284C100.006 602.415 99.0442 603.156 97.6142 603.156C96.1972 603.156 95.3132 602.402 95.3132 601.232ZM102.38 602.987H101.483V593.523H102.38V597.8C102.783 597.046 103.55 596.539 104.603 596.539C106.254 596.539 106.995 597.566 106.995 599.152V603H106.098V599.347C106.098 597.878 105.409 597.358 104.434 597.358C103.082 597.358 102.38 598.359 102.38 599.568V602.987ZM112.583 603V593.692H115.989C117.783 593.692 118.888 594.602 118.888 596.097C118.888 597.189 118.407 597.93 117.445 598.307C118.524 598.658 119.07 599.412 119.07 600.556C119.07 602.051 117.952 603 116.184 603H112.583ZM115.976 594.524H113.519V597.93H116.093C117.263 597.93 117.926 597.28 117.926 596.175C117.926 595.135 117.224 594.524 115.976 594.524ZM116.184 598.749H113.519V602.155H116.184C117.406 602.155 118.121 601.518 118.121 600.439C118.121 599.386 117.393 598.749 116.184 598.749ZM122.371 603.156C121.032 603.156 120.239 602.402 120.239 601.297C120.239 600.14 121.123 599.412 122.592 599.295L124.672 599.126V598.918C124.672 597.683 123.931 597.293 123.008 597.293C121.916 597.293 121.266 597.787 121.266 598.632H120.447C120.447 597.358 121.487 596.539 123.034 596.539C124.49 596.539 125.556 597.267 125.556 598.931V603H124.802L124.685 601.895C124.295 602.688 123.437 603.156 122.371 603.156ZM122.579 602.428C123.905 602.428 124.672 601.505 124.672 600.14V599.802L122.813 599.945C121.63 600.049 121.149 600.569 121.149 601.271C121.149 602.038 121.721 602.428 122.579 602.428ZM126.927 599.672C126.927 597.956 128.032 596.539 129.878 596.539C130.97 596.539 131.802 597.046 132.205 597.969L132.296 596.708H133.076V602.805C133.076 604.677 131.88 605.899 130.034 605.899C128.422 605.899 127.291 604.989 127.044 603.468H127.941C128.136 604.482 128.916 605.08 130.047 605.08C131.334 605.08 132.192 604.209 132.192 602.896V601.401C131.763 602.285 130.892 602.805 129.813 602.805C128.019 602.805 126.927 601.388 126.927 599.672ZM127.824 599.659C127.824 600.946 128.617 601.999 129.943 601.999C131.308 601.999 132.114 601.011 132.114 599.659C132.114 598.32 131.334 597.332 129.956 597.332C128.604 597.332 127.824 598.385 127.824 599.659ZM135.845 602.987H134.948V593.523H135.845V597.8C136.248 597.046 137.015 596.539 138.068 596.539C139.719 596.539 140.46 597.566 140.46 599.152V603H139.563V599.347C139.563 597.878 138.874 597.358 137.899 597.358C136.547 597.358 135.845 598.359 135.845 599.568V602.987ZM144.887 603.156C143.041 603.156 141.806 601.83 141.806 599.854C141.806 597.891 143.028 596.539 144.822 596.539C146.525 596.539 147.682 597.748 147.682 599.529V599.971H142.677C142.742 601.505 143.548 602.389 144.9 602.389C145.927 602.389 146.59 601.947 146.824 601.115H147.682C147.344 602.441 146.369 603.156 144.887 603.156ZM144.822 597.306C143.639 597.306 142.859 598.086 142.703 599.321H146.785C146.785 598.112 146.005 597.306 144.822 597.306ZM150.052 603H149.155V593.523H150.052V603ZM152.726 603.143C152.284 603.143 151.907 602.779 151.907 602.35C151.907 601.908 152.284 601.531 152.726 601.531C153.168 601.531 153.545 601.908 153.545 602.35C153.545 602.779 153.168 603.143 152.726 603.143Z" fill="black"/>
<rect x="0.5" y="536.5" width="122" height="36" rx="18" fill="#F9FFD9" stroke="url(#paint0_linear_171_58)"/>
<path d="M20.4 545.6H21.72V561H20.18V547.294L16.726 548.328L16.33 547.008L20.4 545.6ZM29.3066 551.804C30.7439 551.804 31.9612 552.229 32.9586 553.08C33.9706 553.916 34.4766 555.067 34.4766 556.534C34.4766 558.001 33.9706 559.159 32.9586 560.01C31.9612 560.846 30.7439 561.264 29.3066 561.264C28.1479 561.264 27.1139 560.985 26.2046 560.428C25.2952 559.856 24.6792 559.042 24.3566 557.986L25.6546 557.238C25.8746 558.059 26.3072 558.69 26.9526 559.13C27.6126 559.555 28.3972 559.768 29.3066 559.768C30.3626 559.768 31.2279 559.489 31.9026 558.932C32.5919 558.36 32.9366 557.561 32.9366 556.534C32.9366 555.507 32.5919 554.715 31.9026 554.158C31.2279 553.586 30.3626 553.3 29.3066 553.3H25.1266L25.6766 545.6H33.9266V547.052H27.0406L26.7106 551.804H29.3066ZM38.3157 551.848C38.0811 552.083 37.7951 552.2 37.4577 552.2C37.1204 552.2 36.8344 552.083 36.5997 551.848C36.3651 551.613 36.2477 551.327 36.2477 550.99C36.2477 550.653 36.3651 550.367 36.5997 550.132C36.8344 549.897 37.1204 549.78 37.4577 549.78C37.7951 549.78 38.0811 549.897 38.3157 550.132C38.5504 550.367 38.6677 550.653 38.6677 550.99C38.6677 551.327 38.5504 551.613 38.3157 551.848ZM38.3157 560.868C38.0811 561.103 37.7951 561.22 37.4577 561.22C37.1204 561.22 36.8344 561.103 36.5997 560.868C36.3651 560.633 36.2477 560.347 36.2477 560.01C36.2477 559.673 36.3651 559.387 36.5997 559.152C36.8344 558.917 37.1204 558.8 37.4577 558.8C37.7951 558.8 38.0811 558.917 38.3157 559.152C38.5504 559.387 38.6677 559.673 38.6677 560.01C38.6677 560.347 38.5504 560.633 38.3157 560.868ZM40.878 561V559.614L46.422 554.026C48.006 552.442 48.798 551.085 48.798 549.956C48.798 548.973 48.49 548.211 47.874 547.668C47.2727 547.111 46.5467 546.832 45.696 546.832C44.112 546.832 42.9607 547.558 42.242 549.01L40.944 548.24C41.428 547.287 42.088 546.568 42.924 546.084C43.76 545.585 44.684 545.336 45.696 545.336C46.928 545.336 48.006 545.754 48.93 546.59C49.8687 547.411 50.338 548.533 50.338 549.956C50.338 550.851 50.0887 551.709 49.59 552.53C49.0914 553.351 48.3874 554.217 47.478 555.126L43.078 559.504H50.668V561H40.878ZM57.8758 552.002C59.1078 552.163 60.1198 552.64 60.9118 553.432C61.7185 554.209 62.1218 555.243 62.1218 556.534C62.1218 558.001 61.6158 559.159 60.6038 560.01C59.6065 560.846 58.3891 561.264 56.9518 561.264C55.8078 561.264 54.7885 561 53.8938 560.472C52.9991 559.944 52.3685 559.189 52.0018 558.206L53.2778 557.458C53.5271 558.221 53.9745 558.8 54.6198 559.196C55.2651 559.577 56.0425 559.768 56.9518 559.768C58.0078 559.768 58.8731 559.489 59.5478 558.932C60.2371 558.36 60.5818 557.561 60.5818 556.534C60.5818 555.507 60.2371 554.715 59.5478 554.158C58.8731 553.586 58.0078 553.3 56.9518 553.3V553.278L56.9298 553.3H56.5118L55.8518 552.288L59.6798 547.052H52.4418V545.6H61.4618V547.052L57.8758 552.002Z" fill="#26393A"/>
<path d="M80.76 545.6H82.3V561H80.76V545.6ZM90.4555 561.264C89.0475 561.264 87.8375 560.934 86.8255 560.274C85.8281 559.599 85.1315 558.675 84.7355 557.502L86.0555 556.732C86.3341 557.685 86.8475 558.433 87.5955 558.976C88.3435 559.504 89.3041 559.768 90.4775 559.768C91.6215 559.768 92.5088 559.519 93.1395 559.02C93.7848 558.507 94.1075 557.832 94.1075 556.996C94.1075 556.189 93.8141 555.581 93.2275 555.17C92.6408 554.759 91.6728 554.334 90.3235 553.894C88.7248 553.366 87.6688 552.941 87.1555 552.618C85.9821 551.914 85.3955 550.895 85.3955 549.56C85.3955 548.255 85.8501 547.228 86.7595 546.48C87.6688 545.717 88.7908 545.336 90.1255 545.336C91.3281 545.336 92.3695 545.651 93.2495 546.282C94.1295 546.898 94.7821 547.69 95.2075 548.658L93.9095 549.384C93.2055 547.683 91.9441 546.832 90.1255 546.832C89.1721 546.832 88.4021 547.067 87.8155 547.536C87.2288 548.005 86.9355 548.658 86.9355 549.494C86.9355 550.257 87.1995 550.829 87.7275 551.21C88.2555 551.591 89.1281 551.98 90.3455 552.376C90.9028 552.567 91.2988 552.706 91.5335 552.794C91.7828 552.867 92.1348 552.999 92.5895 553.19C93.0588 553.366 93.4035 553.527 93.6235 553.674C93.8435 553.806 94.1075 553.997 94.4155 554.246C94.7381 554.481 94.9655 554.723 95.0975 554.972C95.2441 555.207 95.3688 555.5 95.4715 555.852C95.5888 556.189 95.6475 556.556 95.6475 556.952C95.6475 558.257 95.1708 559.306 94.2175 560.098C93.2641 560.875 92.0101 561.264 90.4555 561.264ZM107.413 545.6V547.052H102.683V561H101.143V547.052H96.4127V545.6H107.413Z" fill="#26393A"/>
<path d="M10.2 174L6.92 168.4H3V174H1.6V160H7.2C8.36 160 9.34667 160.413 10.16 161.24C10.9867 162.053 11.4 163.04 11.4 164.2C11.4 165.147 11.1133 165.993 10.54 166.74C9.98 167.473 9.26 167.967 8.38 168.22L11.8 174H10.2ZM3 161.32V167.08H7.2C7.97333 167.08 8.63333 166.8 9.18 166.24C9.72667 165.667 10 164.987 10 164.2C10 163.4 9.72667 162.72 9.18 162.16C8.63333 161.6 7.97333 161.32 7.2 161.32H3ZM17.7192 163.76C19.1992 163.76 20.3926 164.287 21.2992 165.34C22.2192 166.38 22.6792 167.613 22.6792 169.04C22.6792 169.187 22.6659 169.393 22.6392 169.66H13.8592C13.9926 170.673 14.4192 171.48 15.1392 172.08C15.8726 172.667 16.7726 172.96 17.8392 172.96C18.5992 172.96 19.2526 172.807 19.7992 172.5C20.3592 172.18 20.7792 171.767 21.0592 171.26L22.2192 171.94C21.7792 172.647 21.1792 173.207 20.4192 173.62C19.6592 174.033 18.7926 174.24 17.8192 174.24C16.2459 174.24 14.9659 173.747 13.9792 172.76C12.9926 171.773 12.4992 170.52 12.4992 169C12.4992 167.507 12.9859 166.26 13.9592 165.26C14.9326 164.26 16.1859 163.76 17.7192 163.76ZM17.7192 165.04C16.6792 165.04 15.8059 165.353 15.0992 165.98C14.4059 166.593 13.9926 167.393 13.8592 168.38H21.3192C21.1859 167.327 20.7792 166.507 20.0992 165.92C19.4192 165.333 18.6259 165.04 17.7192 165.04ZM25.4283 166.62C25.4283 167.073 25.6283 167.433 26.0283 167.7C26.4283 167.967 26.9149 168.173 27.4883 168.32C28.0616 168.467 28.6349 168.633 29.2083 168.82C29.7816 168.993 30.2683 169.293 30.6683 169.72C31.0683 170.133 31.2683 170.68 31.2683 171.36C31.2683 172.213 30.9283 172.907 30.2483 173.44C29.5816 173.973 28.7149 174.24 27.6483 174.24C26.6883 174.24 25.8683 174.027 25.1883 173.6C24.5216 173.173 24.0549 172.62 23.7883 171.94L24.9083 171.28C25.0949 171.8 25.4283 172.213 25.9083 172.52C26.4016 172.813 26.9816 172.96 27.6483 172.96C28.3016 172.96 28.8483 172.833 29.2883 172.58C29.7283 172.313 29.9483 171.907 29.9483 171.36C29.9483 170.907 29.7483 170.547 29.3483 170.28C28.9483 170.013 28.4616 169.807 27.8883 169.66C27.3149 169.513 26.7416 169.353 26.1683 169.18C25.5949 168.993 25.1083 168.693 24.7083 168.28C24.3083 167.853 24.1083 167.3 24.1083 166.62C24.1083 165.807 24.4283 165.127 25.0683 164.58C25.7216 164.033 26.5416 163.76 27.5283 163.76C28.3416 163.76 29.0549 163.947 29.6683 164.32C30.2816 164.68 30.7349 165.173 31.0283 165.8L29.9283 166.44C29.5416 165.507 28.7416 165.04 27.5283 165.04C26.9549 165.04 26.4616 165.18 26.0483 165.46C25.6349 165.727 25.4283 166.113 25.4283 166.62ZM40.4127 164H41.7327V174H40.4127V172.44C39.666 173.64 38.546 174.24 37.0527 174.24C35.8393 174.24 34.8793 173.873 34.1727 173.14C33.4793 172.393 33.1327 171.393 33.1327 170.14V164H34.4527V170.14C34.4527 171.033 34.686 171.727 35.1527 172.22C35.6327 172.713 36.306 172.96 37.1727 172.96C38.1327 172.96 38.9127 172.66 39.5127 172.06C40.1127 171.447 40.4127 170.507 40.4127 169.24V164ZM55.185 163.76C56.305 163.76 57.205 164.12 57.885 164.84C58.5783 165.56 58.925 166.533 58.925 167.76V174H57.605V167.76C57.605 166.893 57.3783 166.227 56.925 165.76C56.485 165.28 55.8983 165.04 55.165 165.04C54.3383 165.04 53.665 165.32 53.145 165.88C52.6383 166.427 52.385 167.287 52.385 168.46V174H51.065V167.76C51.065 166.88 50.8517 166.207 50.425 165.74C50.0117 165.273 49.445 165.04 48.725 165.04C47.925 165.04 47.245 165.32 46.685 165.88C46.125 166.44 45.845 167.3 45.845 168.46V174H44.525V164H45.845V165.46C46.565 164.327 47.585 163.76 48.905 163.76C50.345 163.76 51.3583 164.367 51.945 165.58C52.665 164.367 53.745 163.76 55.185 163.76ZM66.0981 163.76C67.5781 163.76 68.7715 164.287 69.6781 165.34C70.5981 166.38 71.0581 167.613 71.0581 169.04C71.0581 169.187 71.0448 169.393 71.0181 169.66H62.2381C62.3715 170.673 62.7981 171.48 63.5181 172.08C64.2515 172.667 65.1515 172.96 66.2181 172.96C66.9781 172.96 67.6315 172.807 68.1781 172.5C68.7381 172.18 69.1581 171.767 69.4381 171.26L70.5981 171.94C70.1581 172.647 69.5581 173.207 68.7981 173.62C68.0381 174.033 67.1715 174.24 66.1981 174.24C64.6248 174.24 63.3448 173.747 62.3581 172.76C61.3715 171.773 60.8781 170.52 60.8781 169C60.8781 167.507 61.3648 166.26 62.3381 165.26C63.3115 164.26 64.5648 163.76 66.0981 163.76ZM66.0981 165.04C65.0581 165.04 64.1848 165.353 63.4781 165.98C62.7848 166.593 62.3715 167.393 62.2381 168.38H69.6981C69.5648 167.327 69.1581 166.507 68.4781 165.92C67.7981 165.333 67.0048 165.04 66.0981 165.04Z" fill="#1A2B34"/>
<path d="M125.14 174.24C123.02 174.24 121.267 173.54 119.88 172.14C118.493 170.74 117.8 169.027 117.8 167C117.8 164.973 118.493 163.26 119.88 161.86C121.267 160.46 123.02 159.76 125.14 159.76C126.433 159.76 127.62 160.073 128.7 160.7C129.78 161.313 130.613 162.147 131.2 163.2L129.96 163.92C129.52 163.067 128.867 162.387 128 161.88C127.133 161.373 126.18 161.12 125.14 161.12C123.393 161.12 121.967 161.687 120.86 162.82C119.753 163.953 119.2 165.347 119.2 167C119.2 168.653 119.753 170.047 120.86 171.18C121.967 172.313 123.393 172.88 125.14 172.88C126.18 172.88 127.133 172.627 128 172.12C128.867 171.613 129.52 170.933 129.96 170.08L131.2 170.78C130.627 171.833 129.793 172.673 128.7 173.3C127.62 173.927 126.433 174.24 125.14 174.24ZM141.585 172.74C140.571 173.74 139.331 174.24 137.865 174.24C136.398 174.24 135.151 173.74 134.125 172.74C133.111 171.727 132.605 170.48 132.605 169C132.605 167.52 133.111 166.28 134.125 165.28C135.151 164.267 136.398 163.76 137.865 163.76C139.331 163.76 140.571 164.267 141.585 165.28C142.611 166.28 143.125 167.52 143.125 169C143.125 170.48 142.611 171.727 141.585 172.74ZM135.065 171.82C135.825 172.58 136.758 172.96 137.865 172.96C138.971 172.96 139.905 172.58 140.665 171.82C141.425 171.047 141.805 170.107 141.805 169C141.805 167.893 141.425 166.96 140.665 166.2C139.905 165.427 138.971 165.04 137.865 165.04C136.758 165.04 135.825 165.427 135.065 166.2C134.305 166.96 133.925 167.893 133.925 169C133.925 170.107 134.305 171.047 135.065 171.82ZM150.014 163.76C151.227 163.76 152.18 164.133 152.874 164.88C153.58 165.613 153.934 166.607 153.934 167.86V174H152.614V167.86C152.614 166.967 152.374 166.273 151.894 165.78C151.427 165.287 150.76 165.04 149.894 165.04C148.934 165.04 148.154 165.347 147.554 165.96C146.954 166.56 146.654 167.493 146.654 168.76V174H145.334V164H146.654V165.56C147.4 164.36 148.52 163.76 150.014 163.76ZM161.786 165.28H158.906V171.34C158.906 171.887 159.013 172.28 159.226 172.52C159.439 172.747 159.759 172.867 160.186 172.88C160.613 172.88 161.146 172.867 161.786 172.84V174C160.386 174.213 159.333 174.113 158.626 173.7C157.933 173.287 157.586 172.5 157.586 171.34V165.28H155.486V164H157.586V161.6L158.906 161.2V164H161.786V165.28ZM171.98 164H173.3V174H171.98V172.04C171.06 173.507 169.714 174.24 167.94 174.24C166.514 174.24 165.294 173.733 164.28 172.72C163.28 171.707 162.78 170.467 162.78 169C162.78 167.533 163.28 166.293 164.28 165.28C165.294 164.267 166.514 163.76 167.94 163.76C169.714 163.76 171.06 164.493 171.98 165.96V164ZM165.24 171.82C166 172.58 166.934 172.96 168.04 172.96C169.147 172.96 170.08 172.58 170.84 171.82C171.6 171.047 171.98 170.107 171.98 169C171.98 167.893 171.6 166.96 170.84 166.2C170.08 165.427 169.147 165.04 168.04 165.04C166.934 165.04 166 165.427 165.24 166.2C164.48 166.96 164.1 167.893 164.1 169C164.1 170.107 164.48 171.047 165.24 171.82ZM180.755 174.24C179.249 174.24 177.995 173.74 176.995 172.74C175.995 171.727 175.495 170.48 175.495 169C175.495 167.52 175.995 166.28 176.995 165.28C177.995 164.267 179.249 163.76 180.755 163.76C181.742 163.76 182.629 164 183.415 164.48C184.202 164.947 184.775 165.58 185.135 166.38L184.055 167C183.789 166.4 183.355 165.927 182.755 165.58C182.169 165.22 181.502 165.04 180.755 165.04C179.649 165.04 178.715 165.427 177.955 166.2C177.195 166.96 176.815 167.893 176.815 169C176.815 170.107 177.195 171.047 177.955 171.82C178.715 172.58 179.649 172.96 180.755 172.96C181.502 172.96 182.169 172.787 182.755 172.44C183.342 172.08 183.802 171.6 184.135 171L185.235 171.64C184.822 172.44 184.215 173.073 183.415 173.54C182.615 174.007 181.729 174.24 180.755 174.24ZM192.43 165.28H189.55V171.34C189.55 171.887 189.657 172.28 189.87 172.52C190.084 172.747 190.404 172.867 190.83 172.88C191.257 172.88 191.79 172.867 192.43 172.84V174C191.03 174.213 189.977 174.113 189.27 173.7C188.577 173.287 188.23 172.5 188.23 171.34V165.28H186.13V164H188.23V161.6L189.55 161.2V164H192.43V165.28Z" fill="#1A2B34"/>
<g filter="url(#filter0_i_171_58)">
<path d="M207 33C207 31.3431 208.343 30 210 30H387C388.657 30 390 31.3431 390 33V86C390 87.6569 388.657 89 387 89H210C208.343 89 207 87.6569 207 86V33Z" fill="#A2F991"/>
</g>
<path d="M16.464 43.4C21.072 43.4 24.912 45.016 27.984 48.248C31.088 51.48 32.64 55.464 32.64 60.2C32.64 64.936 31.088 68.92 27.984 72.152C24.912 75.384 21.072 77 16.464 77H3.12V43.4H16.464ZM16.464 70.664C19.376 70.664 21.744 69.704 23.568 67.784C25.392 65.832 26.304 63.304 26.304 60.2C26.304 57.096 25.392 54.584 23.568 52.664C21.744 50.712 19.376 49.736 16.464 49.736H9.744V70.664H16.464ZM40.1228 50.12C39.0988 50.12 38.2028 49.752 37.4348 49.016C36.6988 48.248 36.3308 47.352 36.3308 46.328C36.3308 45.304 36.6988 44.408 37.4348 43.64C38.2028 42.872 39.0988 42.488 40.1228 42.488C41.1788 42.488 42.0748 42.872 42.8108 43.64C43.5788 44.408 43.9628 45.304 43.9628 46.328C43.9628 47.352 43.5788 48.248 42.8108 49.016C42.0748 49.752 41.1788 50.12 40.1228 50.12ZM37.0508 77V53H43.2428V77H37.0508ZM64.7021 53H71.5181L62.3981 77H55.3421L46.2221 53H53.0381L58.8461 69.8L64.7021 53ZM90.1519 53H96.7759L88.0399 77C86.7919 80.456 85.1279 82.952 83.0479 84.488C80.9999 86.056 78.4399 86.76 75.3679 86.6V80.84C77.0319 80.872 78.3439 80.52 79.3039 79.784C80.2959 79.048 81.0799 77.864 81.6559 76.232L71.8159 53H78.5839L84.8239 69.128L90.1519 53ZM117.025 53H123.217V77H117.025V74.168C115.169 76.504 112.561 77.672 109.201 77.672C106.001 77.672 103.249 76.456 100.945 74.024C98.6731 71.56 97.5371 68.552 97.5371 65C97.5371 61.448 98.6731 58.456 100.945 56.024C103.249 53.56 106.001 52.328 109.201 52.328C112.561 52.328 115.169 53.496 117.025 55.832V53ZM105.601 69.896C106.849 71.144 108.433 71.768 110.353 71.768C112.273 71.768 113.857 71.144 115.105 69.896C116.385 68.616 117.025 66.984 117.025 65C117.025 63.016 116.385 61.4 115.105 60.152C113.857 58.872 112.273 58.232 110.353 58.232C108.433 58.232 106.849 58.872 105.601 60.152C104.353 61.4 103.729 63.016 103.729 65C103.729 66.984 104.353 68.616 105.601 69.896ZM142.176 52.328C144.8 52.328 146.96 53.208 148.656 54.968C150.384 56.728 151.248 59.16 151.248 62.264V77H145.056V63.032C145.056 61.432 144.624 60.216 143.76 59.384C142.896 58.52 141.744 58.088 140.304 58.088C138.704 58.088 137.424 58.584 136.464 59.576C135.504 60.568 135.024 62.056 135.024 64.04V77H128.832V53H135.024V55.688C136.528 53.448 138.912 52.328 142.176 52.328ZM162.247 59.816C162.247 60.456 162.663 60.984 163.495 61.4C164.359 61.784 165.399 62.136 166.615 62.456C167.831 62.744 169.047 63.128 170.263 63.608C171.479 64.056 172.503 64.824 173.335 65.912C174.199 67 174.631 68.36 174.631 69.992C174.631 72.456 173.703 74.36 171.847 75.704C170.023 77.016 167.735 77.672 164.983 77.672C160.055 77.672 156.695 75.768 154.903 71.96L160.279 68.936C160.983 71.016 162.551 72.056 164.983 72.056C167.191 72.056 168.295 71.368 168.295 69.992C168.295 69.352 167.863 68.84 166.999 68.456C166.167 68.04 165.143 67.672 163.927 67.352C162.711 67.032 161.495 66.632 160.279 66.152C159.063 65.672 158.023 64.92 157.159 63.896C156.327 62.84 155.911 61.528 155.911 59.96C155.911 57.592 156.775 55.736 158.503 54.392C160.263 53.016 162.439 52.328 165.031 52.328C166.983 52.328 168.759 52.776 170.359 53.672C171.959 54.536 173.223 55.784 174.151 57.416L168.871 60.296C168.103 58.664 166.823 57.848 165.031 57.848C164.231 57.848 163.559 58.024 163.015 58.376C162.503 58.728 162.247 59.208 162.247 59.816ZM191.957 52.328C194.581 52.328 196.741 53.208 198.437 54.968C200.165 56.728 201.029 59.16 201.029 62.264V77H194.837V63.032C194.837 61.432 194.405 60.216 193.541 59.384C192.677 58.52 191.525 58.088 190.085 58.088C188.485 58.088 187.205 58.584 186.245 59.576C185.285 60.568 184.805 62.056 184.805 64.04V77H178.613V43.4H184.805V55.688C186.309 53.448 188.693 52.328 191.957 52.328Z" fill="#2A4756"/>
<path d="M239.448 59.576C241.08 60.28 242.376 61.352 243.336 62.792C244.328 64.2 244.824 65.816 244.824 67.64C244.824 70.232 243.912 72.44 242.088 74.264C240.264 76.088 238.056 77 235.464 77H220.824V43.4H234.36C236.856 43.4 238.984 44.296 240.744 46.088C242.504 47.848 243.384 49.96 243.384 52.424C243.384 55.56 242.072 57.944 239.448 59.576ZM234.36 46.568H224.184V58.28H234.36C235.928 58.28 237.256 57.72 238.344 56.6C239.464 55.448 240.024 54.056 240.024 52.424C240.024 50.824 239.464 49.448 238.344 48.296C237.256 47.144 235.928 46.568 234.36 46.568ZM235.464 73.832C237.128 73.832 238.536 73.24 239.688 72.056C240.872 70.84 241.464 69.368 241.464 67.64C241.464 65.944 240.872 64.488 239.688 63.272C238.536 62.056 237.128 61.448 235.464 61.448H224.184V73.832H235.464ZM270.75 53H273.918V77H270.75V72.296C268.542 75.816 265.31 77.576 261.054 77.576C257.63 77.576 254.702 76.36 252.27 73.928C249.87 71.496 248.67 68.52 248.67 65C248.67 61.48 249.87 58.504 252.27 56.072C254.702 53.64 257.63 52.424 261.054 52.424C265.31 52.424 268.542 54.184 270.75 57.704V53ZM254.574 71.768C256.398 73.592 258.638 74.504 261.294 74.504C263.95 74.504 266.19 73.592 268.014 71.768C269.838 69.912 270.75 67.656 270.75 65C270.75 62.344 269.838 60.104 268.014 58.28C266.19 56.424 263.95 55.496 261.294 55.496C258.638 55.496 256.398 56.424 254.574 58.28C252.75 60.104 251.838 62.344 251.838 65C251.838 67.656 252.75 69.912 254.574 71.768ZM301.266 53H304.434V76.04C304.434 79.496 303.25 82.216 300.882 84.2C298.514 86.184 295.682 87.176 292.386 87.176C286.754 87.176 282.962 85.224 281.01 81.32L283.794 79.736C285.234 82.648 288.098 84.104 292.386 84.104C295.138 84.104 297.298 83.368 298.866 81.896C300.466 80.456 301.266 78.504 301.266 76.04V72.296C299.058 75.816 295.826 77.576 291.57 77.576C288.146 77.576 285.218 76.36 282.786 73.928C280.386 71.496 279.186 68.52 279.186 65C279.186 61.48 280.386 58.504 282.786 56.072C285.218 53.64 288.146 52.424 291.57 52.424C295.826 52.424 299.058 54.184 301.266 57.704V53ZM285.09 71.768C286.914 73.592 289.154 74.504 291.81 74.504C294.466 74.504 296.706 73.592 298.53 71.768C300.354 69.912 301.266 67.656 301.266 65C301.266 62.344 300.354 60.104 298.53 58.28C296.706 56.424 294.466 55.496 291.81 55.496C289.154 55.496 286.914 56.424 285.09 58.28C283.266 60.104 282.354 62.344 282.354 65C282.354 67.656 283.266 69.912 285.09 71.768ZM322.373 52.424C325.285 52.424 327.573 53.32 329.237 55.112C330.933 56.872 331.781 59.256 331.781 62.264V77H328.613V62.264C328.613 60.12 328.037 58.456 326.885 57.272C325.765 56.088 324.165 55.496 322.085 55.496C319.781 55.496 317.909 56.232 316.469 57.704C315.029 59.144 314.309 61.384 314.309 64.424V77H311.141V43.4H314.309V56.744C316.101 53.864 318.789 52.424 322.373 52.424ZM348.995 52.424C352.547 52.424 355.411 53.688 357.587 56.216C359.795 58.712 360.899 61.672 360.899 65.096C360.899 65.448 360.867 65.944 360.803 66.584H339.731C340.051 69.016 341.075 70.952 342.803 72.392C344.563 73.8 346.723 74.504 349.283 74.504C351.107 74.504 352.675 74.136 353.987 73.4C355.331 72.632 356.339 71.64 357.011 70.424L359.795 72.056C358.739 73.752 357.299 75.096 355.475 76.088C353.651 77.08 351.571 77.576 349.235 77.576C345.459 77.576 342.387 76.392 340.019 74.024C337.651 71.656 336.467 68.648 336.467 65C336.467 61.416 337.635 58.424 339.971 56.024C342.307 53.624 345.315 52.424 348.995 52.424ZM348.995 55.496C346.499 55.496 344.403 56.248 342.707 57.752C341.043 59.224 340.051 61.144 339.731 63.512H357.635C357.315 60.984 356.339 59.016 354.707 57.608C353.075 56.2 351.171 55.496 348.995 55.496ZM365.938 77V41.96H369.106V77H365.938Z" fill="#4A5568"/>
<path d="M10.6 4H12V18H10.6V11.46H3V18H1.6V4H3V10.14H10.6V4ZM19.6138 7.76C21.0938 7.76 22.2871 8.28667 23.1938 9.34C24.1138 10.38 24.5738 11.6133 24.5738 13.04C24.5738 13.1867 24.5604 13.3933 24.5338 13.66H15.7538C15.8871 14.6733 16.3138 15.48 17.0338 16.08C17.7671 16.6667 18.6671 16.96 19.7338 16.96C20.4938 16.96 21.1471 16.8067 21.6938 16.5C22.2538 16.18 22.6738 15.7667 22.9538 15.26L24.1138 15.94C23.6738 16.6467 23.0738 17.2067 22.3138 17.62C21.5538 18.0333 20.6871 18.24 19.7138 18.24C18.1404 18.24 16.8604 17.7467 15.8738 16.76C14.8871 15.7733 14.3938 14.52 14.3938 13C14.3938 11.5067 14.8804 10.26 15.8538 9.26C16.8271 8.26 18.0804 7.76 19.6138 7.76ZM19.6138 9.04C18.5738 9.04 17.7004 9.35333 16.9938 9.98C16.3004 10.5933 15.8871 11.3933 15.7538 12.38H23.2138C23.0804 11.3267 22.6738 10.5067 21.9938 9.92C21.3138 9.33333 20.5204 9.04 19.6138 9.04ZM33.4828 8H34.8828L30.6028 18.92C30.2161 19.9067 29.6628 20.68 28.9428 21.24C28.2361 21.8133 27.4428 22.0667 26.5628 22V20.76C27.7628 20.8933 28.6761 20.2 29.3028 18.68L29.5628 18.06L25.0828 8H26.4828L30.2428 16.38L33.4828 8ZM36.8813 16.3L35.6813 20.8H34.4813L35.2813 16.3H36.8813ZM44.6859 4H46.0859V18H44.6859V4ZM51.2953 4L50.0953 8.5H48.8953L49.6953 4H51.2953ZM64.56 7.76C65.68 7.76 66.58 8.12 67.26 8.84C67.9533 9.56 68.3 10.5333 68.3 11.76V18H66.98V11.76C66.98 10.8933 66.7533 10.2267 66.3 9.76C65.86 9.28 65.2733 9.04 64.54 9.04C63.7133 9.04 63.04 9.32 62.52 9.88C62.0133 10.4267 61.76 11.2867 61.76 12.46V18H60.44V11.76C60.44 10.88 60.2267 10.2067 59.8 9.74C59.3867 9.27333 58.82 9.04 58.1 9.04C57.3 9.04 56.62 9.32 56.06 9.88C55.5 10.44 55.22 11.3 55.22 12.46V18H53.9V8H55.22V9.46C55.94 8.32667 56.96 7.76 58.28 7.76C59.72 7.76 60.7333 8.36667 61.32 9.58C62.04 8.36667 63.12 7.76 64.56 7.76Z" fill="#010101" fill-opacity="0.25"/>
<path d="M7 100C8.90667 100 10.48 100.68 11.72 102.04C12.9733 103.387 13.6 105.04 13.6 107C13.6 108.96 12.9733 110.62 11.72 111.98C10.48 113.327 8.90667 114 7 114H1.6V100H7ZM7 112.68C8.53333 112.68 9.78667 112.133 10.76 111.04C11.7467 109.947 12.24 108.6 12.24 107C12.24 105.4 11.7467 104.053 10.76 102.96C9.78667 101.867 8.53333 101.32 7 101.32H3V112.68H7ZM20.4145 103.76C21.8945 103.76 23.0879 104.287 23.9945 105.34C24.9145 106.38 25.3745 107.613 25.3745 109.04C25.3745 109.187 25.3612 109.393 25.3345 109.66H16.5545C16.6879 110.673 17.1145 111.48 17.8345 112.08C18.5679 112.667 19.4679 112.96 20.5345 112.96C21.2945 112.96 21.9479 112.807 22.4945 112.5C23.0545 112.18 23.4745 111.767 23.7545 111.26L24.9145 111.94C24.4745 112.647 23.8745 113.207 23.1145 113.62C22.3545 114.033 21.4879 114.24 20.5145 114.24C18.9412 114.24 17.6612 113.747 16.6745 112.76C15.6879 111.773 15.1945 110.52 15.1945 109C15.1945 107.507 15.6812 106.26 16.6545 105.26C17.6279 104.26 18.8812 103.76 20.4145 103.76ZM20.4145 105.04C19.3745 105.04 18.5012 105.353 17.7945 105.98C17.1012 106.593 16.6879 107.393 16.5545 108.38H24.0145C23.8812 107.327 23.4745 106.507 22.7945 105.92C22.1145 105.333 21.3212 105.04 20.4145 105.04ZM28.1236 106.62C28.1236 107.073 28.3236 107.433 28.7236 107.7C29.1236 107.967 29.6103 108.173 30.1836 108.32C30.7569 108.467 31.3303 108.633 31.9036 108.82C32.4769 108.993 32.9636 109.293 33.3636 109.72C33.7636 110.133 33.9636 110.68 33.9636 111.36C33.9636 112.213 33.6236 112.907 32.9436 113.44C32.2769 113.973 31.4103 114.24 30.3436 114.24C29.3836 114.24 28.5636 114.027 27.8836 113.6C27.2169 113.173 26.7503 112.62 26.4836 111.94L27.6036 111.28C27.7903 111.8 28.1236 112.213 28.6036 112.52C29.0969 112.813 29.6769 112.96 30.3436 112.96C30.9969 112.96 31.5436 112.833 31.9836 112.58C32.4236 112.313 32.6436 111.907 32.6436 111.36C32.6436 110.907 32.4436 110.547 32.0436 110.28C31.6436 110.013 31.1569 109.807 30.5836 109.66C30.0103 109.513 29.4369 109.353 28.8636 109.18C28.2903 108.993 27.8036 108.693 27.4036 108.28C27.0036 107.853 26.8036 107.3 26.8036 106.62C26.8036 105.807 27.1236 105.127 27.7636 104.58C28.4169 104.033 29.2369 103.76 30.2236 103.76C31.0369 103.76 31.7503 103.947 32.3636 104.32C32.9769 104.68 33.4303 105.173 33.7236 105.8L32.6236 106.44C32.2369 105.507 31.4369 105.04 30.2236 105.04C29.6503 105.04 29.1569 105.18 28.7436 105.46C28.3303 105.727 28.1236 106.113 28.1236 106.62ZM37.408 101.6C37.2213 101.787 36.9946 101.88 36.728 101.88C36.4613 101.88 36.2346 101.787 36.048 101.6C35.8613 101.413 35.768 101.187 35.768 100.92C35.768 100.653 35.8613 100.427 36.048 100.24C36.2346 100.053 36.4613 99.96 36.728 99.96C36.9946 99.96 37.2213 100.053 37.408 100.24C37.5946 100.427 37.688 100.653 37.688 100.92C37.688 101.187 37.5946 101.413 37.408 101.6ZM36.068 114V104H37.388V114H36.068ZM48.7891 104H50.1091V113.6C50.1091 115.04 49.6157 116.173 48.6291 117C47.6424 117.827 46.4624 118.24 45.0891 118.24C42.7424 118.24 41.1624 117.427 40.3491 115.8L41.5091 115.14C42.1091 116.353 43.3024 116.96 45.0891 116.96C46.2357 116.96 47.1357 116.653 47.7891 116.04C48.4557 115.44 48.7891 114.627 48.7891 113.6V112.04C47.8691 113.507 46.5224 114.24 44.7491 114.24C43.3224 114.24 42.1024 113.733 41.0891 112.72C40.0891 111.707 39.5891 110.467 39.5891 109C39.5891 107.533 40.0891 106.293 41.0891 105.28C42.1024 104.267 43.3224 103.76 44.7491 103.76C46.5224 103.76 47.8691 104.493 48.7891 105.96V104ZM42.0491 111.82C42.8091 112.58 43.7424 112.96 44.8491 112.96C45.9557 112.96 46.8891 112.58 47.6491 111.82C48.4091 111.047 48.7891 110.107 48.7891 109C48.7891 107.893 48.4091 106.96 47.6491 106.2C46.8891 105.427 45.9557 105.04 44.8491 105.04C43.7424 105.04 42.8091 105.427 42.0491 106.2C41.2891 106.96 40.9091 107.893 40.9091 109C40.9091 110.107 41.2891 111.047 42.0491 111.82ZM57.5839 103.76C58.7972 103.76 59.7506 104.133 60.4439 104.88C61.1506 105.613 61.5039 106.607 61.5039 107.86V114H60.1839V107.86C60.1839 106.967 59.9439 106.273 59.4639 105.78C58.9972 105.287 58.3306 105.04 57.4639 105.04C56.5039 105.04 55.7239 105.347 55.1239 105.96C54.5239 106.56 54.2239 107.493 54.2239 108.76V114H52.9039V104H54.2239V105.56C54.9706 104.36 56.0906 103.76 57.5839 103.76ZM70.6563 112.68H77.4563V114H69.2563V100H77.3563V101.32H70.6563V106.28H76.8563V107.6H70.6563V112.68ZM84.3417 103.76C85.5551 103.76 86.5084 104.133 87.2017 104.88C87.9084 105.613 88.2617 106.607 88.2617 107.86V114H86.9417V107.86C86.9417 106.967 86.7017 106.273 86.2217 105.78C85.7551 105.287 85.0884 105.04 84.2217 105.04C83.2617 105.04 82.4817 105.347 81.8817 105.96C81.2817 106.56 80.9817 107.493 80.9817 108.76V114H79.6617V104H80.9817V105.56C81.7284 104.36 82.8484 103.76 84.3417 103.76ZM99.4141 104H100.734V113.6C100.734 115.04 100.241 116.173 99.2541 117C98.2674 117.827 97.0874 118.24 95.7141 118.24C93.3674 118.24 91.7874 117.427 90.9741 115.8L92.1341 115.14C92.7341 116.353 93.9274 116.96 95.7141 116.96C96.8607 116.96 97.7607 116.653 98.4141 116.04C99.0807 115.44 99.4141 114.627 99.4141 113.6V112.04C98.4941 113.507 97.1474 114.24 95.3741 114.24C93.9474 114.24 92.7274 113.733 91.7141 112.72C90.7141 111.707 90.2141 110.467 90.2141 109C90.2141 107.533 90.7141 106.293 91.7141 105.28C92.7274 104.267 93.9474 103.76 95.3741 103.76C97.1474 103.76 98.4941 104.493 99.4141 105.96V104ZM92.6741 111.82C93.4341 112.58 94.3674 112.96 95.4741 112.96C96.5807 112.96 97.5141 112.58 98.2741 111.82C99.0341 111.047 99.4141 110.107 99.4141 109C99.4141 107.893 99.0341 106.96 98.2741 106.2C97.5141 105.427 96.5807 105.04 95.4741 105.04C94.3674 105.04 93.4341 105.427 92.6741 106.2C91.9141 106.96 91.5341 107.893 91.5341 109C91.5341 110.107 91.9141 111.047 92.6741 111.82ZM104.869 101.6C104.682 101.787 104.456 101.88 104.189 101.88C103.922 101.88 103.696 101.787 103.509 101.6C103.322 101.413 103.229 101.187 103.229 100.92C103.229 100.653 103.322 100.427 103.509 100.24C103.696 100.053 103.922 99.96 104.189 99.96C104.456 99.96 104.682 100.053 104.869 100.24C105.056 100.427 105.149 100.653 105.149 100.92C105.149 101.187 105.056 101.413 104.869 101.6ZM103.529 114V104H104.849V114H103.529ZM112.33 103.76C113.543 103.76 114.497 104.133 115.19 104.88C115.897 105.613 116.25 106.607 116.25 107.86V114H114.93V107.86C114.93 106.967 114.69 106.273 114.21 105.78C113.743 105.287 113.077 105.04 112.21 105.04C111.25 105.04 110.47 105.347 109.87 105.96C109.27 106.56 108.97 107.493 108.97 108.76V114H107.65V104H108.97V105.56C109.717 104.36 110.837 103.76 112.33 103.76ZM123.422 103.76C124.902 103.76 126.096 104.287 127.002 105.34C127.922 106.38 128.382 107.613 128.382 109.04C128.382 109.187 128.369 109.393 128.342 109.66H119.562C119.696 110.673 120.122 111.48 120.842 112.08C121.576 112.667 122.476 112.96 123.542 112.96C124.302 112.96 124.956 112.807 125.502 112.5C126.062 112.18 126.482 111.767 126.762 111.26L127.922 111.94C127.482 112.647 126.882 113.207 126.122 113.62C125.362 114.033 124.496 114.24 123.522 114.24C121.949 114.24 120.669 113.747 119.682 112.76C118.696 111.773 118.202 110.52 118.202 109C118.202 107.507 118.689 106.26 119.662 105.26C120.636 104.26 121.889 103.76 123.422 103.76ZM123.422 105.04C122.382 105.04 121.509 105.353 120.802 105.98C120.109 106.593 119.696 107.393 119.562 108.38H127.022C126.889 107.327 126.482 106.507 125.802 105.92C125.122 105.333 124.329 105.04 123.422 105.04ZM135.102 103.76C136.582 103.76 137.775 104.287 138.682 105.34C139.602 106.38 140.062 107.613 140.062 109.04C140.062 109.187 140.049 109.393 140.022 109.66H131.242C131.375 110.673 131.802 111.48 132.522 112.08C133.255 112.667 134.155 112.96 135.222 112.96C135.982 112.96 136.635 112.807 137.182 112.5C137.742 112.18 138.162 111.767 138.442 111.26L139.602 111.94C139.162 112.647 138.562 113.207 137.802 113.62C137.042 114.033 136.175 114.24 135.202 114.24C133.629 114.24 132.349 113.747 131.362 112.76C130.375 111.773 129.882 110.52 129.882 109C129.882 107.507 130.369 106.26 131.342 105.26C132.315 104.26 133.569 103.76 135.102 103.76ZM135.102 105.04C134.062 105.04 133.189 105.353 132.482 105.98C131.789 106.593 131.375 107.393 131.242 108.38H138.702C138.569 107.327 138.162 106.507 137.482 105.92C136.802 105.333 136.009 105.04 135.102 105.04ZM143.482 105.66C144.095 104.447 145.148 103.84 146.642 103.84V105.12C145.735 105.12 144.982 105.387 144.382 105.92C143.782 106.453 143.482 107.293 143.482 108.44V114H142.162V104H143.482V105.66Z" fill="#010101" fill-opacity="0.25"/>
<defs>
<filter id="filter0_i_171_58" x="207" y="30" width="183" height="60" filterUnits="userSpaceOnUse" color-interpolation-filters="sRGB">
<feFlood flood-opacity="0" result="BackgroundImageFix"/>
<feBlend mode="normal" in="SourceGraphic" in2="BackgroundImageFix" result="shape"/>
<feColorMatrix in="SourceAlpha" type="matrix" values="0 0 0 0 0 0 0 0 0 0 0 0 0 0 0 0 0 0 127 0" result="hardAlpha"/>
<feOffset dy="1"/>
<feGaussianBlur stdDeviation="0.95"/>
<feComposite in2="hardAlpha" operator="arithmetic" k2="-1" k3="1"/>
<feColorMatrix type="matrix" values="0 0 0 0 0 0 0 0 0 0 0 0 0 0 0 0 0 0 0.25 0"/>
<feBlend mode="normal" in2="shape" result="effect1_innerShadow_171_58"/>
</filter>
<linearGradient id="paint0_linear_171_58" x1="61.5" y1="536" x2="61.5" y2="573" gradientUnits="userSpaceOnUse">
<stop stop-color="#EADFC3" stop-opacity="0.88"/>
<stop offset="1" stop-color="#F8EDD1"/>
</linearGradient>
</defs>
</svg>
