<svg width="588" height="970" viewBox="0 0 588 970" fill="none" xmlns="http://www.w3.org/2000/svg" xmlns:xlink="http://www.w3.org/1999/xlink">
<g filter="url(#filter0_d_171_47)">
<rect x="25" width="563" height="958" fill="url(#pattern0_171_47)" shape-rendering="crispEdges"/>
</g>
<g filter="url(#filter1_i_171_47)">
<path d="M209.463 146.437C209.387 144.782 210.668 143.379 212.323 143.304L400.128 134.731C401.783 134.656 403.186 135.936 403.261 137.591L404.538 165.562C404.613 167.217 403.333 168.62 401.678 168.696L213.873 177.268C212.218 177.344 210.815 176.063 210.74 174.408L209.463 146.437Z" fill="#A2F991"/>
</g>
<path d="M229.943 166.861C227.418 166.976 225.294 166.232 223.571 164.629C221.848 163.026 220.93 160.994 220.818 158.533C220.705 156.055 221.434 153.948 223.004 152.21C224.574 150.457 226.621 149.523 229.147 149.407C230.665 149.338 232.08 149.634 233.391 150.295C234.718 150.939 235.769 151.852 236.544 153.034L233.766 154.818C233.316 154.086 232.698 153.53 231.912 153.149C231.125 152.753 230.252 152.576 229.293 152.62C227.663 152.694 226.368 153.266 225.407 154.335C224.463 155.403 224.028 156.752 224.103 158.383C224.176 159.997 224.732 161.293 225.77 162.271C226.823 163.248 228.165 163.699 229.795 163.624C230.754 163.581 231.608 163.334 232.356 162.883C233.12 162.416 233.685 161.805 234.051 161.052L236.979 162.576C236.315 163.823 235.36 164.836 234.115 165.614C232.868 166.375 231.478 166.791 229.943 166.861ZM239.22 166.101L238.421 148.6L241.514 148.458L242.313 165.96L239.22 166.101ZM246.065 152.335C245.554 152.358 245.098 152.195 244.698 151.845C244.312 151.478 244.108 151.039 244.085 150.527C244.062 150.016 244.225 149.56 244.575 149.16C244.941 148.758 245.38 148.546 245.891 148.523C246.419 148.499 246.875 148.67 247.26 149.037C247.661 149.403 247.874 149.842 247.897 150.353C247.92 150.865 247.749 151.321 247.383 151.722C247.032 152.107 246.593 152.311 246.065 152.335ZM245.144 165.831L244.597 153.843L247.689 153.702L248.237 165.69L245.144 165.831ZM256.789 165.636C254.983 165.718 253.444 165.18 252.174 164.02C250.92 162.86 250.252 161.385 250.17 159.595C250.089 157.805 250.619 156.275 251.763 155.006C252.922 153.736 254.405 153.059 256.211 152.977C257.378 152.924 258.453 153.155 259.438 153.67C260.422 154.186 261.184 154.904 261.722 155.825L259.132 157.504C258.87 157.02 258.484 156.645 257.976 156.38C257.483 156.114 256.933 155.995 256.326 156.023C255.399 156.065 254.646 156.412 254.067 157.063C253.487 157.698 253.219 158.495 253.263 159.454C253.306 160.397 253.646 161.166 254.281 161.762C254.917 162.342 255.698 162.61 256.625 162.568C257.248 162.54 257.793 162.379 258.26 162.085C258.743 161.775 259.092 161.366 259.31 160.86L262.065 162.272C261.58 163.239 260.872 164.032 259.939 164.651C259.006 165.254 257.955 165.582 256.789 165.636ZM274.88 164.474L271.284 164.638L266.672 159.395L266.92 164.837L263.827 164.978L263.061 148.196L266.154 148.054L266.614 158.124L270.497 152.661L274.189 152.493L269.64 158.634L274.88 164.474Z" fill="#2A4756"/>
<path d="M293.453 146.808L293.525 148.391L288.371 148.626L289.065 163.826L287.386 163.903L286.692 148.703L281.538 148.938L281.466 147.355L293.453 146.808ZM304.2 161.622C303.04 162.876 301.581 163.543 299.823 163.623C298.065 163.704 296.543 163.172 295.258 162.03C293.988 160.871 293.312 159.404 293.231 157.63C293.15 155.856 293.69 154.341 294.85 153.087C296.025 151.816 297.492 151.141 299.25 151.06C301.008 150.98 302.522 151.52 303.792 152.679C305.078 153.822 305.761 155.28 305.842 157.054C305.923 158.828 305.376 160.351 304.2 161.622ZM296.334 160.876C297.287 161.745 298.427 162.149 299.753 162.089C301.08 162.028 302.178 161.522 303.047 160.569C303.916 159.601 304.32 158.453 304.26 157.126C304.199 155.8 303.692 154.702 302.74 153.832C301.786 152.947 300.646 152.534 299.32 152.595C297.993 152.655 296.895 153.17 296.027 154.139C295.157 155.091 294.753 156.231 294.813 157.557C294.874 158.884 295.381 159.99 296.334 160.876ZM314.231 145.86L315.909 145.783L316.675 162.566L314.997 162.642L314.231 145.86ZM325.333 149.87C326.787 149.803 327.95 150.199 328.822 151.056C329.709 151.896 330.187 153.068 330.256 154.57L330.592 161.931L329.01 162.003L328.674 154.642C328.625 153.572 328.299 152.754 327.697 152.188C327.11 151.623 326.298 151.363 325.259 151.411C324.108 151.463 323.19 151.874 322.504 152.642C321.818 153.394 321.509 154.529 321.578 156.047L321.865 162.329L320.283 162.401L319.735 150.414L321.318 150.341L321.403 152.211C322.233 150.732 323.542 149.952 325.333 149.87ZM339.528 151.048L336.075 151.205L336.407 158.47C336.437 159.125 336.586 159.591 336.855 159.867C337.123 160.127 337.513 160.253 338.026 160.246C338.537 160.223 339.176 160.177 339.941 160.11L340.005 161.501C338.338 161.833 337.07 161.771 336.2 161.314C335.347 160.857 334.888 159.933 334.825 158.542L334.493 151.278L331.976 151.393L331.906 149.858L334.423 149.743L334.292 146.866L335.852 146.314L336.005 149.671L339.458 149.513L339.528 151.048ZM346.894 148.886C348.668 148.805 350.128 149.371 351.272 150.584C352.432 151.78 353.051 153.233 353.129 154.944C353.137 155.12 353.132 155.368 353.115 155.689L342.59 156.17C342.805 157.377 343.361 158.321 344.257 159C345.168 159.664 346.263 159.966 347.542 159.908C348.453 159.866 349.227 159.646 349.866 159.249C350.52 158.835 351.001 158.316 351.309 157.694L352.736 158.445C352.248 159.316 351.559 160.021 350.67 160.558C349.782 161.095 348.754 161.39 347.588 161.443C345.702 161.529 344.14 161.008 342.903 159.879C341.667 158.75 341.007 157.275 340.924 155.453C340.842 153.663 341.357 152.142 342.469 150.89C343.581 149.638 345.056 148.97 346.894 148.886ZM346.964 150.42C345.718 150.477 344.688 150.9 343.875 151.69C343.077 152.463 342.626 153.445 342.52 154.635L351.463 154.227C351.245 152.972 350.713 152.011 349.866 151.345C349.018 150.679 348.051 150.37 346.964 150.42ZM357.043 150.705C357.712 149.217 358.942 148.432 360.732 148.35L360.802 149.885C359.715 149.934 358.827 150.295 358.137 150.967C357.446 151.639 357.133 152.663 357.196 154.037L357.5 160.702L355.917 160.775L355.37 148.787L356.953 148.715L357.043 150.705ZM372.493 148.006L374.075 147.933L374.622 159.921L373.04 159.993L372.933 157.643C371.91 159.452 370.336 160.405 368.21 160.502C366.5 160.58 365.01 160.039 363.739 158.88C362.485 157.72 361.818 156.261 361.738 154.503C361.658 152.745 362.189 151.231 363.332 149.961C364.492 148.691 365.926 148.017 367.637 147.939C369.762 147.842 371.417 148.647 372.6 150.355L372.493 148.006ZM364.841 157.749C365.794 158.618 366.933 159.022 368.26 158.962C369.587 158.901 370.685 158.395 371.554 157.442C372.423 156.474 372.827 155.326 372.766 153.999C372.706 152.673 372.199 151.575 371.247 150.705C370.293 149.82 369.153 149.407 367.827 149.468C366.5 149.528 365.402 150.043 364.534 151.012C363.664 151.964 363.26 153.104 363.32 154.43C363.381 155.757 363.888 156.863 364.841 157.749ZM383.572 159.801C381.766 159.883 380.236 159.352 378.983 158.208C377.728 157.048 377.061 155.581 376.98 153.807C376.899 152.033 377.43 150.519 378.574 149.266C379.718 147.996 381.192 147.32 382.998 147.238C384.181 147.184 385.257 147.423 386.227 147.955C387.195 148.472 387.917 149.199 388.392 150.139L387.132 150.941C386.779 150.236 386.234 149.693 385.496 149.31C384.773 148.911 383.964 148.731 383.069 148.772C381.742 148.833 380.644 149.347 379.775 150.316C378.906 151.268 378.502 152.408 378.562 153.735C378.623 155.061 379.13 156.167 380.083 157.053C381.036 157.922 382.175 158.327 383.502 158.266C384.397 158.225 385.187 157.981 385.871 157.533C386.555 157.07 387.08 156.469 387.446 155.732L388.8 156.439C388.348 157.42 387.656 158.213 386.722 158.816C385.789 159.419 384.739 159.747 383.572 159.801ZM397.077 148.421L393.625 148.579L393.956 155.843C393.986 156.498 394.136 156.964 394.405 157.24C394.673 157.5 395.063 157.626 395.575 157.619C396.087 157.596 396.725 157.551 397.491 157.484L397.554 158.874C395.888 159.206 394.62 159.144 393.75 158.687C392.896 158.23 392.438 157.306 392.374 155.915L392.043 148.651L389.525 148.766L389.455 147.231L391.972 147.116L391.841 144.239L393.402 143.688L393.555 147.044L397.007 146.887L397.077 148.421Z" fill="#4A5568"/>
<path d="M409.556 789.6H411.2V798H409.556V794.52H406.436V798H404.78V789.6H406.436V792.936H409.556V789.6ZM413.456 791.28C413.2 791.28 412.976 791.188 412.784 791.004C412.6 790.812 412.508 790.588 412.508 790.332C412.508 790.076 412.6 789.852 412.784 789.66C412.976 789.468 413.2 789.372 413.456 789.372C413.72 789.372 413.944 789.468 414.128 789.66C414.32 789.852 414.416 790.076 414.416 790.332C414.416 790.588 414.32 790.812 414.128 791.004C413.944 791.188 413.72 791.28 413.456 791.28ZM412.688 798V792H414.236V798H412.688ZM417.201 793.032C417.345 792.648 417.581 792.36 417.909 792.168C418.245 791.976 418.617 791.88 419.025 791.88V793.608C418.553 793.552 418.129 793.648 417.753 793.896C417.385 794.144 417.201 794.556 417.201 795.132V798H415.653V792H417.201V793.032ZM421.016 795.636C421.224 796.388 421.788 796.764 422.708 796.764C423.3 796.764 423.748 796.564 424.052 796.164L425.3 796.884C424.708 797.74 423.836 798.168 422.684 798.168C421.692 798.168 420.896 797.868 420.296 797.268C419.696 796.668 419.396 795.912 419.396 795C419.396 794.096 419.692 793.344 420.284 792.744C420.876 792.136 421.636 791.832 422.564 791.832C423.444 791.832 424.168 792.136 424.736 792.744C425.312 793.352 425.6 794.104 425.6 795C425.6 795.2 425.58 795.412 425.54 795.636H421.016ZM420.992 794.436H424.052C423.964 794.028 423.78 793.724 423.5 793.524C423.228 793.324 422.916 793.224 422.564 793.224C422.148 793.224 421.804 793.332 421.532 793.548C421.26 793.756 421.08 794.052 420.992 794.436ZM437.973 789.6V798H436.329V792.552L433.965 796.452H433.773L431.409 792.564V798H429.753V789.6H431.457L433.869 793.572L436.269 789.6H437.973ZM440.774 795.636C440.982 796.388 441.546 796.764 442.466 796.764C443.058 796.764 443.506 796.564 443.81 796.164L445.058 796.884C444.466 797.74 443.594 798.168 442.442 798.168C441.45 798.168 440.654 797.868 440.054 797.268C439.454 796.668 439.154 795.912 439.154 795C439.154 794.096 439.45 793.344 440.042 792.744C440.634 792.136 441.394 791.832 442.322 791.832C443.202 791.832 443.926 792.136 444.494 792.744C445.07 793.352 445.358 794.104 445.358 795C445.358 795.2 445.338 795.412 445.298 795.636H440.774ZM440.75 794.436H443.81C443.722 794.028 443.538 793.724 443.258 793.524C442.986 793.324 442.674 793.224 442.322 793.224C441.906 793.224 441.562 793.332 441.29 793.548C441.018 793.756 440.838 794.052 440.75 794.436Z" fill="#211F1F"/>
<path d="M179.54 747.09C178.833 747.79 177.973 748.14 176.96 748.14C175.947 748.14 175.087 747.79 174.38 747.09C173.68 746.383 173.33 745.52 173.33 744.5C173.33 743.48 173.68 742.62 174.38 741.92C175.087 741.213 175.947 740.86 176.96 740.86C177.973 740.86 178.833 741.213 179.54 741.92C180.247 742.62 180.6 743.48 180.6 744.5C180.6 745.52 180.247 746.383 179.54 747.09ZM175.35 746.15C175.783 746.577 176.32 746.79 176.96 746.79C177.6 746.79 178.137 746.577 178.57 746.15C179.003 745.717 179.22 745.167 179.22 744.5C179.22 743.833 179.003 743.283 178.57 742.85C178.137 742.417 177.6 742.2 176.96 742.2C176.32 742.2 175.783 742.417 175.35 742.85C174.917 743.283 174.7 743.833 174.7 744.5C174.7 745.167 174.917 745.717 175.35 746.15ZM184.37 744.24H183.24V746.32C183.24 746.493 183.283 746.62 183.37 746.7C183.457 746.78 183.583 746.827 183.75 746.84C183.917 746.847 184.123 746.843 184.37 746.83V748C183.483 748.1 182.857 748.017 182.49 747.75C182.13 747.483 181.95 747.007 181.95 746.32V744.24H181.08V743H181.95V741.99L183.24 741.6V743H184.37V744.24ZM188.059 742.86C188.606 742.86 189.056 743.043 189.409 743.41C189.769 743.777 189.949 744.283 189.949 744.93V748H188.659V745.09C188.659 744.757 188.569 744.503 188.389 744.33C188.209 744.15 187.969 744.06 187.669 744.06C187.336 744.06 187.069 744.163 186.869 744.37C186.669 744.577 186.569 744.887 186.569 745.3V748H185.279V741H186.569V743.56C186.883 743.093 187.379 742.86 188.059 742.86ZM192.141 746.03C192.314 746.657 192.784 746.97 193.551 746.97C194.044 746.97 194.418 746.803 194.671 746.47L195.711 747.07C195.218 747.783 194.491 748.14 193.531 748.14C192.704 748.14 192.041 747.89 191.541 747.39C191.041 746.89 190.791 746.26 190.791 745.5C190.791 744.747 191.038 744.12 191.531 743.62C192.024 743.113 192.658 742.86 193.431 742.86C194.164 742.86 194.768 743.113 195.241 743.62C195.721 744.127 195.961 744.753 195.961 745.5C195.961 745.667 195.944 745.843 195.911 746.03H192.141ZM192.121 745.03H194.671C194.598 744.69 194.444 744.437 194.211 744.27C193.984 744.103 193.724 744.02 193.431 744.02C193.084 744.02 192.798 744.11 192.571 744.29C192.344 744.463 192.194 744.71 192.121 745.03ZM198.151 743.86C198.271 743.54 198.468 743.3 198.741 743.14C199.021 742.98 199.331 742.9 199.671 742.9V744.34C199.278 744.293 198.925 744.373 198.611 744.58C198.305 744.787 198.151 745.13 198.151 745.61V748H196.861V743H198.151V743.86ZM205.786 744.24H204.656V746.32C204.656 746.493 204.699 746.62 204.786 746.7C204.873 746.78 204.999 746.827 205.166 746.84C205.333 746.847 205.539 746.843 205.786 746.83V748C204.899 748.1 204.273 748.017 203.906 747.75C203.546 747.483 203.366 747.007 203.366 746.32V744.24H202.496V743H203.366V741.99L204.656 741.6V743H205.786V744.24ZM209.475 742.86C210.022 742.86 210.472 743.043 210.825 743.41C211.185 743.777 211.365 744.283 211.365 744.93V748H210.075V745.09C210.075 744.757 209.985 744.503 209.805 744.33C209.625 744.15 209.385 744.06 209.085 744.06C208.752 744.06 208.485 744.163 208.285 744.37C208.085 744.577 207.985 744.887 207.985 745.3V748H206.695V741H207.985V743.56C208.299 743.093 208.795 742.86 209.475 742.86ZM213.107 742.4C212.894 742.4 212.707 742.323 212.547 742.17C212.394 742.01 212.317 741.823 212.317 741.61C212.317 741.397 212.394 741.21 212.547 741.05C212.707 740.89 212.894 740.81 213.107 740.81C213.327 740.81 213.514 740.89 213.667 741.05C213.827 741.21 213.907 741.397 213.907 741.61C213.907 741.823 213.827 742.01 213.667 742.17C213.514 742.323 213.327 742.4 213.107 742.4ZM212.467 748V743H213.757V748H212.467ZM217.718 742.86C218.264 742.86 218.714 743.043 219.068 743.41C219.428 743.777 219.608 744.283 219.608 744.93V748H218.318V745.09C218.318 744.757 218.228 744.503 218.048 744.33C217.868 744.15 217.628 744.06 217.328 744.06C216.994 744.06 216.728 744.163 216.528 744.37C216.328 744.577 216.228 744.887 216.228 745.3V748H214.938V743H216.228V743.56C216.541 743.093 217.038 742.86 217.718 742.86ZM224.539 743H225.799V747.76C225.799 748.533 225.542 749.123 225.029 749.53C224.522 749.937 223.909 750.14 223.189 750.14C222.649 750.14 222.172 750.037 221.759 749.83C221.352 749.623 221.039 749.32 220.819 748.92L221.919 748.29C222.172 748.757 222.609 748.99 223.229 748.99C223.636 748.99 223.956 748.883 224.189 748.67C224.422 748.457 224.539 748.153 224.539 747.76V747.22C224.159 747.727 223.626 747.98 222.939 747.98C222.232 747.98 221.639 747.733 221.159 747.24C220.686 746.74 220.449 746.133 220.449 745.42C220.449 744.713 220.689 744.11 221.169 743.61C221.649 743.11 222.239 742.86 222.939 742.86C223.626 742.86 224.159 743.113 224.539 743.62V743ZM222.129 746.41C222.396 746.663 222.732 746.79 223.139 746.79C223.546 746.79 223.879 746.663 224.139 746.41C224.406 746.15 224.539 745.82 224.539 745.42C224.539 745.027 224.406 744.703 224.139 744.45C223.879 744.19 223.546 744.06 223.139 744.06C222.732 744.06 222.396 744.19 222.129 744.45C221.869 744.703 221.739 745.027 221.739 745.42C221.739 745.82 221.869 746.15 222.129 746.41ZM228.12 744.42C228.12 744.553 228.207 744.663 228.38 744.75C228.56 744.83 228.777 744.903 229.03 744.97C229.283 745.03 229.537 745.11 229.79 745.21C230.043 745.303 230.257 745.463 230.43 745.69C230.61 745.917 230.7 746.2 230.7 746.54C230.7 747.053 230.507 747.45 230.12 747.73C229.74 748.003 229.263 748.14 228.69 748.14C227.663 748.14 226.963 747.743 226.59 746.95L227.71 746.32C227.857 746.753 228.183 746.97 228.69 746.97C229.15 746.97 229.38 746.827 229.38 746.54C229.38 746.407 229.29 746.3 229.11 746.22C228.937 746.133 228.723 746.057 228.47 745.99C228.217 745.923 227.963 745.84 227.71 745.74C227.457 745.64 227.24 745.483 227.06 745.27C226.887 745.05 226.8 744.777 226.8 744.45C226.8 743.957 226.98 743.57 227.34 743.29C227.707 743.003 228.16 742.86 228.7 742.86C229.107 742.86 229.477 742.953 229.81 743.14C230.143 743.32 230.407 743.58 230.6 743.92L229.5 744.52C229.34 744.18 229.073 744.01 228.7 744.01C228.533 744.01 228.393 744.047 228.28 744.12C228.173 744.193 228.12 744.293 228.12 744.42ZM234.138 741H235.518V748H234.138V741ZM243.044 741H244.334V748H243.044V747.41C242.664 747.897 242.124 748.14 241.424 748.14C240.751 748.14 240.174 747.887 239.694 747.38C239.221 746.867 238.984 746.24 238.984 745.5C238.984 744.76 239.221 744.137 239.694 743.63C240.174 743.117 240.751 742.86 241.424 742.86C242.124 742.86 242.664 743.103 243.044 743.59V741ZM240.664 746.52C240.931 746.78 241.264 746.91 241.664 746.91C242.064 746.91 242.394 746.78 242.654 746.52C242.914 746.253 243.044 745.913 243.044 745.5C243.044 745.087 242.914 744.75 242.654 744.49C242.394 744.223 242.064 744.09 241.664 744.09C241.264 744.09 240.931 744.223 240.664 744.49C240.404 744.75 240.274 745.087 240.274 745.5C240.274 745.913 240.404 746.253 240.664 746.52ZM249.774 747.38C249.26 747.887 248.634 748.14 247.894 748.14C247.154 748.14 246.527 747.887 246.014 747.38C245.507 746.867 245.254 746.24 245.254 745.5C245.254 744.76 245.507 744.137 246.014 743.63C246.527 743.117 247.154 742.86 247.894 742.86C248.634 742.86 249.26 743.117 249.774 743.63C250.287 744.137 250.544 744.76 250.544 745.5C250.544 746.24 250.287 746.867 249.774 747.38ZM246.924 746.49C247.184 746.75 247.507 746.88 247.894 746.88C248.28 746.88 248.604 746.75 248.864 746.49C249.124 746.23 249.254 745.9 249.254 745.5C249.254 745.1 249.124 744.77 248.864 744.51C248.604 744.25 248.28 744.12 247.894 744.12C247.507 744.12 247.184 744.25 246.924 744.51C246.67 744.77 246.544 745.1 246.544 745.5C246.544 745.9 246.67 746.23 246.924 746.49Z" fill="#211F1F"/>
<path d="M385.648 391.168C384.816 391.168 384.116 390.984 383.548 390.616C382.98 390.24 382.58 389.732 382.348 389.092L383.764 388.264C384.092 389.12 384.736 389.548 385.696 389.548C386.16 389.548 386.5 389.464 386.716 389.296C386.932 389.128 387.04 388.916 387.04 388.66C387.04 388.364 386.908 388.136 386.644 387.976C386.38 387.808 385.908 387.628 385.228 387.436C384.852 387.324 384.532 387.212 384.268 387.1C384.012 386.988 383.752 386.84 383.488 386.656C383.232 386.464 383.036 386.224 382.9 385.936C382.764 385.648 382.696 385.312 382.696 384.928C382.696 384.168 382.964 383.564 383.5 383.116C384.044 382.66 384.696 382.432 385.456 382.432C386.136 382.432 386.732 382.6 387.244 382.936C387.764 383.264 388.168 383.724 388.456 384.316L387.064 385.12C386.728 384.4 386.192 384.04 385.456 384.04C385.112 384.04 384.84 384.12 384.64 384.28C384.448 384.432 384.352 384.632 384.352 384.88C384.352 385.144 384.46 385.36 384.676 385.528C384.9 385.688 385.324 385.864 385.948 386.056C386.204 386.136 386.396 386.2 386.524 386.248C386.66 386.288 386.84 386.356 387.064 386.452C387.296 386.54 387.472 386.624 387.592 386.704C387.72 386.784 387.864 386.892 388.024 387.028C388.184 387.164 388.304 387.304 388.384 387.448C388.472 387.592 388.544 387.768 388.6 387.976C388.664 388.176 388.696 388.396 388.696 388.636C388.696 389.412 388.412 390.028 387.844 390.484C387.284 390.94 386.552 391.168 385.648 391.168ZM391.176 388.636C391.384 389.388 391.948 389.764 392.868 389.764C393.46 389.764 393.908 389.564 394.212 389.164L395.46 389.884C394.868 390.74 393.996 391.168 392.844 391.168C391.852 391.168 391.056 390.868 390.456 390.268C389.856 389.668 389.556 388.912 389.556 388C389.556 387.096 389.852 386.344 390.444 385.744C391.036 385.136 391.796 384.832 392.724 384.832C393.604 384.832 394.328 385.136 394.896 385.744C395.472 386.352 395.76 387.104 395.76 388C395.76 388.2 395.74 388.412 395.7 388.636H391.176ZM391.152 387.436H394.212C394.124 387.028 393.94 386.724 393.66 386.524C393.388 386.324 393.076 386.224 392.724 386.224C392.308 386.224 391.964 386.332 391.692 386.548C391.42 386.756 391.24 387.052 391.152 387.436ZM396.841 391V382.24H398.389V391H396.841ZM401.114 388.636C401.322 389.388 401.886 389.764 402.806 389.764C403.398 389.764 403.846 389.564 404.15 389.164L405.398 389.884C404.806 390.74 403.934 391.168 402.782 391.168C401.79 391.168 400.994 390.868 400.394 390.268C399.794 389.668 399.494 388.912 399.494 388C399.494 387.096 399.79 386.344 400.382 385.744C400.974 385.136 401.734 384.832 402.662 384.832C403.542 384.832 404.266 385.136 404.834 385.744C405.41 386.352 405.698 387.104 405.698 388C405.698 388.2 405.678 388.412 405.638 388.636H401.114ZM401.09 387.436H404.15C404.062 387.028 403.878 386.724 403.598 386.524C403.326 386.324 403.014 386.224 402.662 386.224C402.246 386.224 401.902 386.332 401.63 386.548C401.358 386.756 401.178 387.052 401.09 387.436ZM409.587 391.168C408.683 391.168 407.927 390.864 407.319 390.256C406.719 389.648 406.419 388.896 406.419 388C406.419 387.104 406.719 386.352 407.319 385.744C407.927 385.136 408.683 384.832 409.587 384.832C410.171 384.832 410.703 384.972 411.183 385.252C411.663 385.532 412.027 385.908 412.275 386.38L410.943 387.16C410.823 386.912 410.639 386.716 410.391 386.572C410.151 386.428 409.879 386.356 409.575 386.356C409.111 386.356 408.727 386.512 408.423 386.824C408.119 387.128 407.967 387.52 407.967 388C407.967 388.472 408.119 388.864 408.423 389.176C408.727 389.48 409.111 389.632 409.575 389.632C409.887 389.632 410.163 389.564 410.403 389.428C410.651 389.284 410.835 389.088 410.955 388.84L412.299 389.608C412.035 390.08 411.663 390.46 411.183 390.748C410.703 391.028 410.171 391.168 409.587 391.168ZM416.55 386.488H415.194V388.984C415.194 389.192 415.246 389.344 415.35 389.44C415.454 389.536 415.606 389.592 415.806 389.608C416.006 389.616 416.254 389.612 416.55 389.596V391C415.486 391.12 414.734 391.02 414.294 390.7C413.862 390.38 413.646 389.808 413.646 388.984V386.488H412.602V385H413.646V383.788L415.194 383.32V385H416.55V386.488ZM418.762 388.636C418.97 389.388 419.534 389.764 420.454 389.764C421.046 389.764 421.494 389.564 421.798 389.164L423.046 389.884C422.454 390.74 421.582 391.168 420.43 391.168C419.438 391.168 418.642 390.868 418.042 390.268C417.442 389.668 417.142 388.912 417.142 388C417.142 387.096 417.438 386.344 418.03 385.744C418.622 385.136 419.382 384.832 420.31 384.832C421.19 384.832 421.914 385.136 422.482 385.744C423.058 386.352 423.346 387.104 423.346 388C423.346 388.2 423.326 388.412 423.286 388.636H418.762ZM418.738 387.436H421.798C421.71 387.028 421.526 386.724 421.246 386.524C420.974 386.324 420.662 386.224 420.31 386.224C419.894 386.224 419.55 386.332 419.278 386.548C419.006 386.756 418.826 387.052 418.738 387.436ZM428.928 382.6H430.476V391H428.928V390.292C428.472 390.876 427.824 391.168 426.984 391.168C426.176 391.168 425.484 390.864 424.908 390.256C424.34 389.64 424.056 388.888 424.056 388C424.056 387.112 424.34 386.364 424.908 385.756C425.484 385.14 426.176 384.832 426.984 384.832C427.824 384.832 428.472 385.124 428.928 385.708V382.6ZM426.072 389.224C426.392 389.536 426.792 389.692 427.272 389.692C427.752 389.692 428.148 389.536 428.46 389.224C428.772 388.904 428.928 388.496 428.928 388C428.928 387.504 428.772 387.1 428.46 386.788C428.148 386.468 427.752 386.308 427.272 386.308C426.792 386.308 426.392 386.468 426.072 386.788C425.76 387.1 425.604 387.504 425.604 388C425.604 388.496 425.76 388.904 426.072 389.224ZM436.716 391L434.364 382.6H436.104L437.712 388.828L439.464 382.6H440.88L442.644 388.828L444.252 382.6H445.992L443.64 391H441.756L440.172 385.456L438.6 391H436.716ZM451.277 390.256C450.661 390.864 449.909 391.168 449.021 391.168C448.133 391.168 447.381 390.864 446.765 390.256C446.157 389.64 445.853 388.888 445.853 388C445.853 387.112 446.157 386.364 446.765 385.756C447.381 385.14 448.133 384.832 449.021 384.832C449.909 384.832 450.661 385.14 451.277 385.756C451.893 386.364 452.201 387.112 452.201 388C452.201 388.888 451.893 389.64 451.277 390.256ZM447.857 389.188C448.169 389.5 448.557 389.656 449.021 389.656C449.485 389.656 449.873 389.5 450.185 389.188C450.497 388.876 450.653 388.48 450.653 388C450.653 387.52 450.497 387.124 450.185 386.812C449.873 386.5 449.485 386.344 449.021 386.344C448.557 386.344 448.169 386.5 447.857 386.812C447.553 387.124 447.401 387.52 447.401 388C447.401 388.48 447.553 388.876 447.857 389.188ZM454.838 386.032C454.982 385.648 455.218 385.36 455.546 385.168C455.882 384.976 456.254 384.88 456.662 384.88V386.608C456.19 386.552 455.766 386.648 455.39 386.896C455.022 387.144 454.838 387.556 454.838 388.132V391H453.29V385H454.838V386.032ZM463.099 391H461.299L459.115 388.276V391H457.567V382.6H459.115V387.64L461.179 385H463.027L460.615 387.964L463.099 391Z" fill="#211F1F"/>
<path d="M179.18 391L178.676 389.488H175.328L174.824 391H173.036L175.976 382.6H178.028L180.98 391H179.18ZM175.856 387.94H178.16L177.008 384.508L175.856 387.94ZM185.216 384.832C186.024 384.832 186.712 385.14 187.28 385.756C187.856 386.364 188.144 387.112 188.144 388C188.144 388.888 187.856 389.64 187.28 390.256C186.712 390.864 186.024 391.168 185.216 391.168C184.376 391.168 183.728 390.876 183.272 390.292V391H181.724V382.6H183.272V385.708C183.728 385.124 184.376 384.832 185.216 384.832ZM183.74 389.224C184.052 389.536 184.448 389.692 184.928 389.692C185.408 389.692 185.804 389.536 186.116 389.224C186.436 388.904 186.596 388.496 186.596 388C186.596 387.504 186.436 387.1 186.116 386.788C185.804 386.468 185.408 386.308 184.928 386.308C184.448 386.308 184.052 386.468 183.74 386.788C183.428 387.1 183.272 387.504 183.272 388C183.272 388.496 183.428 388.904 183.74 389.224ZM194.347 390.256C193.731 390.864 192.979 391.168 192.091 391.168C191.203 391.168 190.451 390.864 189.835 390.256C189.227 389.64 188.923 388.888 188.923 388C188.923 387.112 189.227 386.364 189.835 385.756C190.451 385.14 191.203 384.832 192.091 384.832C192.979 384.832 193.731 385.14 194.347 385.756C194.963 386.364 195.271 387.112 195.271 388C195.271 388.888 194.963 389.64 194.347 390.256ZM190.927 389.188C191.239 389.5 191.627 389.656 192.091 389.656C192.555 389.656 192.943 389.5 193.255 389.188C193.567 388.876 193.723 388.48 193.723 388C193.723 387.52 193.567 387.124 193.255 386.812C192.943 386.5 192.555 386.344 192.091 386.344C191.627 386.344 191.239 386.5 190.927 386.812C190.623 387.124 190.471 387.52 190.471 388C190.471 388.48 190.623 388.876 190.927 389.188ZM200.32 385H201.868V391H200.32V390.328C199.944 390.888 199.348 391.168 198.532 391.168C197.876 391.168 197.332 390.948 196.9 390.508C196.476 390.068 196.264 389.46 196.264 388.684V385H197.812V388.492C197.812 388.892 197.92 389.2 198.136 389.416C198.352 389.624 198.64 389.728 199 389.728C199.4 389.728 199.72 389.604 199.96 389.356C200.2 389.108 200.32 388.736 200.32 388.24V385ZM206.718 386.488H205.362V388.984C205.362 389.192 205.414 389.344 205.518 389.44C205.622 389.536 205.774 389.592 205.974 389.608C206.174 389.616 206.422 389.612 206.718 389.596V391C205.654 391.12 204.902 391.02 204.462 390.7C204.03 390.38 203.814 389.808 203.814 388.984V386.488H202.77V385H203.814V383.788L205.362 383.32V385H206.718V386.488ZM219.195 382.6V391H217.551V385.552L215.187 389.452H214.995L212.631 385.564V391H210.975V382.6H212.679L215.091 386.572L217.491 382.6H219.195ZM221.996 388.636C222.204 389.388 222.768 389.764 223.688 389.764C224.28 389.764 224.728 389.564 225.032 389.164L226.28 389.884C225.688 390.74 224.816 391.168 223.664 391.168C222.672 391.168 221.876 390.868 221.276 390.268C220.676 389.668 220.376 388.912 220.376 388C220.376 387.096 220.672 386.344 221.264 385.744C221.856 385.136 222.616 384.832 223.544 384.832C224.424 384.832 225.148 385.136 225.716 385.744C226.292 386.352 226.58 387.104 226.58 388C226.58 388.2 226.56 388.412 226.52 388.636H221.996ZM221.972 387.436H225.032C224.944 387.028 224.76 386.724 224.48 386.524C224.208 386.324 223.896 386.224 223.544 386.224C223.128 386.224 222.784 386.332 222.512 386.548C222.24 386.756 222.06 387.052 221.972 387.436Z" fill="#211F1F"/>
<path d="M362 713C362 711.343 363.343 710 365 710H484C485.657 710 487 711.343 487 713V891C487 892.657 485.657 894 484 894H365C363.343 894 362 892.657 362 891V713Z" fill="#A2F991" fill-opacity="0.2"/>
<path d="M145 713C145 711.343 146.343 710 148 710H267C268.657 710 270 711.343 270 713V891C270 892.657 268.657 894 267 894H148C146.343 894 145 892.657 145 891V713Z" fill="#A2F991" fill-opacity="0.2"/>
<path d="M362 373C362 371.343 363.343 370 365 370H481C482.657 370 484 371.343 484 373V540C484 541.657 482.657 543 481 543H365C363.343 543 362 541.657 362 540V373Z" fill="#A2F991" fill-opacity="0.2"/>
<path d="M148 369C148 367.343 149.343 366 151 366H267C268.657 366 270 367.343 270 369V544C270 545.657 268.657 547 267 547H151C149.343 547 148 545.657 148 544V369Z" fill="#A2F991" fill-opacity="0.2"/>
<defs>
<filter id="filter0_d_171_47" x="0" y="0" width="588" height="970" filterUnits="userSpaceOnUse" color-interpolation-filters="sRGB">
<feFlood flood-opacity="0" result="BackgroundImageFix"/>
<feColorMatrix in="SourceAlpha" type="matrix" values="0 0 0 0 0 0 0 0 0 0 0 0 0 0 0 0 0 0 127 0" result="hardAlpha"/>
<feOffset dx="-25" dy="12"/>
<feComposite in2="hardAlpha" operator="out"/>
<feColorMatrix type="matrix" values="0 0 0 0 0 0 0 0 0 0 0 0 0 0 0 0 0 0 0.25 0"/>
<feBlend mode="normal" in2="BackgroundImageFix" result="effect1_dropShadow_171_47"/>
<feBlend mode="normal" in="SourceGraphic" in2="effect1_dropShadow_171_47" result="shape"/>
</filter>
<!-- [PATTERN REMOVED] -->
<filter id="filter1_i_171_47" x="209.46" y="134.728" width="195.081" height="43.5435" filterUnits="userSpaceOnUse" color-interpolation-filters="sRGB">
<feFlood flood-opacity="0" result="BackgroundImageFix"/>
<feBlend mode="normal" in="SourceGraphic" in2="BackgroundImageFix" result="shape"/>
<feColorMatrix in="SourceAlpha" type="matrix" values="0 0 0 0 0 0 0 0 0 0 0 0 0 0 0 0 0 0 127 0" result="hardAlpha"/>
<feOffset dy="1"/>
<feGaussianBlur stdDeviation="0.95"/>
<feComposite in2="hardAlpha" operator="arithmetic" k2="-1" k3="1"/>
<feColorMatrix type="matrix" values="0 0 0 0 0 0 0 0 0 0 0 0 0 0 0 0 0 0 0.25 0"/>
<feBlend mode="normal" in2="shape" result="effect1_innerShadow_171_47"/>
</filter>
<!-- [IMAGE REMOVED] -->
</defs>
</svg>
